<?xml version="1.0" encoding="UTF-8" standalone="no"?>
<!-- Created with Inkscape (http://www.inkscape.org/) -->

<svg
   width="72.706734mm"
   height="91.774345mm"
   viewBox="0 0 72.706734 91.774345"
   version="1.1"
   id="svg1"
   xml:space="preserve"
   inkscape:version="1.4.1 (93de688d07, 2025-03-30)"
   sodipodi:docname="sneklogo.svg"
   inkscape:export-filename="sneklogo.png"
   inkscape:export-xdpi="90"
   inkscape:export-ydpi="90"
   xmlns:inkscape="http://www.inkscape.org/namespaces/inkscape"
   xmlns:sodipodi="http://sodipodi.sourceforge.net/DTD/sodipodi-0.dtd"
   xmlns="http://www.w3.org/2000/svg"
   xmlns:svg="http://www.w3.org/2000/svg"><sodipodi:namedview
     id="namedview1"
     pagecolor="#ffffff"
     bordercolor="#666666"
     borderopacity="1.0"
     inkscape:showpageshadow="2"
     inkscape:pageopacity="0.0"
     inkscape:pagecheckerboard="0"
     inkscape:deskcolor="#d1d1d1"
     inkscape:document-units="mm"
     inkscape:zoom="1.0761504"
     inkscape:cx="-173.30291"
     inkscape:cy="137.52725"
     inkscape:window-width="2558"
     inkscape:window-height="1424"
     inkscape:window-x="0"
     inkscape:window-y="14"
     inkscape:window-maximized="1"
     inkscape:current-layer="layer1" /><defs
     id="defs1" /><g
     inkscape:label="Layer 1"
     inkscape:groupmode="layer"
     id="layer1"
     transform="translate(-62.570803,-53.533081)"><path
       id="rect61"
       style="fill:#5eeb3f;stroke-width:1.76389"
       d="m 71.560081,68.923042 6.585997,2.520824 c 12.390429,-0.905586 22.208152,-16.675673 37.171292,-2.716757 4.86237,7.950231 1.18626,15.584221 -12.72365,22.839182 -13.015134,3.741727 -34.647014,3.816756 -27.533478,16.123879 8.489588,10.33938 33.370898,3.58945 36.030398,5.82256 -5.08761,8.49996 -41.824739,13.23011 -47.260375,-8.67076 -0.557528,-9.065795 1.801716,-18.757252 14.456351,-20.492564 -5.387599,-1.317087 -11.79823,-1.138975 -14.375932,-6.562834 -0.04383,-2.870845 0.617684,-5.764442 7.649397,-8.86353 z"
       sodipodi:nodetypes="cccccccccc" /><g
       id="g60"><path
         style="fill:none;stroke:#002742;stroke-width:1.76389;stroke-linecap:butt;stroke-linejoin:miter;stroke-dasharray:none;stroke-opacity:1"
         d="m 108.1019,64.025679 c 7.4815,0.107664 19.2087,17.327883 -6.06962,27.557515 -14.985304,6.064254 -27.962308,1.350323 -27.962308,12.157756 0,7.16456 8.096735,9.33076 13.579447,9.60093 11.246631,0.5542 22.657761,-2.72682 23.541181,0.0615 0.88341,2.78829 -10.63164,6.04422 -16.165352,6.69971 -8.603133,1.01908 -19.428114,0.44384 -25.815397,-5.40894 -4.511335,-4.13381 -6.575934,-9.60561 -5.40894,-15.612167 2.017463,-10.383948 12.661838,-14.997516 12.661838,-14.997516"
         id="path52"
         sodipodi:nodetypes="cssszsssc" /><ellipse
         style="fill:#ffffff;fill-opacity:1;stroke:#002742;stroke-width:1.76389;stroke-dasharray:none;stroke-opacity:1"
         id="path53"
         cx="97.225578"
         cy="65.106796"
         rx="10.300609"
         ry="10.691771" /><ellipse
         style="fill:#ffffff;fill-opacity:1;stroke:#002742;stroke-width:1.76389;stroke-dasharray:none;stroke-opacity:1"
         id="ellipse53"
         cx="79.666733"
         cy="63.020599"
         rx="8.7359591"
         ry="8.4317217" /><path
         style="fill:none;stroke:#002742;stroke-width:1.76389;stroke-linecap:butt;stroke-linejoin:miter;stroke-dasharray:none;stroke-opacity:1"
         d="m 72.408493,68.757646 c 0,0 -9.123016,4.134088 -8.953269,8.170947 0.159722,3.798444 5.324332,5.472942 8.953271,6.606296 4.403111,1.375136 9.792158,-0.28699 14.342618,-1.043099 5.292505,-0.879409 11.111131,-3.066383 16.341887,-4.259323 2.17816,-0.496755 5.30243,-0.608475 5.30243,-0.608475"
         id="path54"
         sodipodi:nodetypes="cssssc" /><ellipse
         style="fill:none;stroke:#002742;stroke-width:1.76389;stroke-dasharray:none;stroke-opacity:1"
         id="ellipse55"
         cx="106.55531"
         cy="2.849719"
         rx="1.0430995"
         ry="1.260412"
         transform="rotate(45.103679)" /><ellipse
         style="fill:none;stroke:#002742;stroke-width:1.76389;stroke-dasharray:none;stroke-opacity:1"
         id="ellipse56"
         cx="101.94977"
         cy="5.2552009"
         rx="1.0430995"
         ry="1.260412"
         transform="rotate(45.103679)" /><path
         style="fill:#002742;fill-opacity:1;stroke:#002742;stroke-width:1.76389;stroke-linecap:butt;stroke-linejoin:miter;stroke-dasharray:none;stroke-opacity:1"
         d="m 85.490701,82.83949 c 0,0 -3.169985,4.327777 -2.694674,6.084747 0.337116,1.246138 1.270469,2.02586 2.520826,2.346974 2.290291,0.588188 4.521705,-1.17704 6.258596,-2.781598 3.185343,-2.942653 3.739845,-3.319555 5.476272,-5.215497 1.425308,-1.556243 4.476639,-4.476636 4.476639,-4.476636 -5.074338,1.449167 -10.311573,2.837248 -16.037659,4.04201 z"
         id="path56"
         sodipodi:nodetypes="csssscc" /><circle
         style="fill:#002742;fill-opacity:1;stroke:none;stroke-width:1.76389;stroke-dasharray:none;stroke-opacity:1"
         id="path57"
         cx="102.21288"
         cy="64.139763"
         r="2.7707334" /><circle
         style="fill:#002742;fill-opacity:1;stroke:none;stroke-width:1.76389;stroke-dasharray:none;stroke-opacity:1"
         id="circle57"
         cx="77.048111"
         cy="66.486732"
         r="2.5099583" /><rect
         style="fill:#002742;fill-opacity:1;stroke:none;stroke-width:1.76389;stroke-dasharray:none;stroke-opacity:1"
         id="rect57"
         width="8.0828791"
         height="13.07837"
         x="117.43258"
         y="96.48671" /><rect
         style="fill:#002742;fill-opacity:1;stroke:none;stroke-width:1.76388;stroke-dasharray:none;stroke-opacity:1"
         id="rect58"
         width="13.755074"
         height="13.07837"
         x="100.08595"
         y="96.48671" /><rect
         style="fill:#002742;fill-opacity:1;stroke:none;stroke-width:1.76388;stroke-dasharray:none;stroke-opacity:1"
         id="rect59"
         width="10.351756"
         height="13.07837"
         x="86.142639"
         y="96.48671" /><rect
         style="fill:#002742;fill-opacity:1;stroke:none;stroke-width:1.76389;stroke-dasharray:none;stroke-opacity:1"
         id="rect60"
         width="6.1705298"
         height="13.07837"
         x="129.10701"
         y="96.48671" /><path
         style="fill:none;stroke:#002742;stroke-width:1.76389;stroke-linecap:butt;stroke-linejoin:miter;stroke-dasharray:none;stroke-opacity:1"
         d="m 74.23392,102.74531 h 58.1528"
         id="path60" /></g><text
       xml:space="preserve"
       style="font-size:41.549px;line-height:1.25;font-family:'Libre Baskerville';-inkscape-font-specification:'Libre Baskerville';text-align:center;letter-spacing:0px;word-spacing:0px;text-anchor:middle;stroke-width:0.264583"
       x="98.259399"
       y="142.93916"
       id="text60"><tspan
         sodipodi:role="line"
         id="tspan60"
         style="font-style:normal;font-variant:normal;font-weight:normal;font-stretch:normal;font-family:'Grape Nuts';-inkscape-font-specification:'Grape Nuts';fill:#002742;fill-opacity:1;stroke-width:0.264583"
         x="98.259399"
         y="142.93916">snek</tspan></text></g></svg>
